<?xml version="1.0" encoding="utf-8"?>
<!-- Generator: Adobe Illustrator 20.0.0, SVG Export Plug-In . SVG Version: 6.00 Build 0)  -->
<svg version="1.1" id="Layer_1" xmlns="http://www.w3.org/2000/svg" xmlns:xlink="http://www.w3.org/1999/xlink" x="0px" y="0px"
	 viewBox="0 0 176 176" style="enable-background:new 0 0 176 176;" xml:space="preserve">
<style type="text/css">
	.st0{display:none;}
	.st1{display:inline;fill:#F2F3F4;}
	.st2{display:inline;}
	.st3{fill:none;stroke:#CDCBCA;stroke-width:0.4;stroke-linecap:round;stroke-miterlimit:10;}
	.st4{fill:none;stroke:#CDCBCA;stroke-width:0.4;stroke-miterlimit:10;}
	.st5{fill:none;stroke:#CDCBCA;stroke-width:0.2;stroke-miterlimit:10;}
</style>
<g id="Master_vodafone_icon_grid" class="st0">
	<path id="XMLID_54_" class="st1" d="M176,176.001H0V0h176V176.001z M160,16H16v144.001h144V16z"/>
	<g id="XMLID_45_" class="st2">
		<line id="XMLID_53_" class="st3" x1="16" y1="88" x2="160" y2="88"/>
		<g id="XMLID_46_">
			<rect id="XMLID_52_" x="16" y="16" class="st4" width="144" height="144.001"/>
			<circle id="XMLID_51_" class="st3" cx="88" cy="88" r="72"/>
			<line id="XMLID_50_" class="st3" x1="88.043" y1="16" x2="88.043" y2="160.001"/>
			<g id="XMLID_47_">
				<line id="XMLID_49_" class="st3" x1="16.043" y1="16.04" x2="160" y2="160.001"/>
				<line id="XMLID_48_" class="st3" x1="16" y1="160.001" x2="160" y2="16"/>
			</g>
		</g>
	</g>
	<g id="XMLID_1_" class="st2">
		<line id="XMLID_44_" class="st5" x1="176" y1="8" x2="0" y2="8"/>
		<line id="XMLID_43_" class="st5" x1="8" y1="176.001" x2="8" y2="0"/>
		<line id="XMLID_42_" class="st5" x1="16" y1="176.001" x2="16" y2="0"/>
		<line id="XMLID_41_" class="st5" x1="24" y1="176.001" x2="24" y2="0"/>
		<line id="XMLID_40_" class="st5" x1="32" y1="176.001" x2="32" y2="0"/>
		<line id="XMLID_39_" class="st5" x1="40" y1="176.001" x2="40" y2="0"/>
		<line id="XMLID_38_" class="st5" x1="48" y1="176.001" x2="48" y2="0"/>
		<line id="XMLID_37_" class="st5" x1="56" y1="176.001" x2="56" y2="0"/>
		<line id="XMLID_36_" class="st5" x1="64" y1="176.001" x2="64" y2="0"/>
		<line id="XMLID_35_" class="st5" x1="72" y1="176.001" x2="72" y2="0"/>
		<line id="XMLID_34_" class="st5" x1="80" y1="176.001" x2="80" y2="0"/>
		<line id="XMLID_33_" class="st5" x1="88" y1="176.001" x2="88" y2="0"/>
		<line id="XMLID_32_" class="st5" x1="96" y1="176.001" x2="96" y2="0"/>
		<line id="XMLID_31_" class="st5" x1="104" y1="176.001" x2="104" y2="0"/>
		<line id="XMLID_30_" class="st5" x1="112" y1="176.001" x2="112" y2="0"/>
		<line id="XMLID_29_" class="st5" x1="120" y1="176.001" x2="120" y2="0"/>
		<line id="XMLID_28_" class="st5" x1="128" y1="176.001" x2="128" y2="0"/>
		<line id="XMLID_27_" class="st5" x1="136" y1="176.001" x2="136" y2="0"/>
		<line id="XMLID_26_" class="st5" x1="144" y1="176.001" x2="144" y2="0"/>
		<line id="XMLID_25_" class="st5" x1="152" y1="176.001" x2="152" y2="0"/>
		<line id="XMLID_24_" class="st5" x1="160" y1="176.001" x2="160" y2="0"/>
		<line id="XMLID_23_" class="st5" x1="168" y1="176.001" x2="168" y2="0"/>
		<line id="XMLID_22_" class="st5" x1="176" y1="16" x2="0" y2="16"/>
		<line id="XMLID_21_" class="st5" x1="176" y1="24" x2="0" y2="24"/>
		<line id="XMLID_20_" class="st5" x1="176" y1="32" x2="0" y2="32"/>
		<line id="XMLID_19_" class="st5" x1="176" y1="40" x2="0" y2="40"/>
		<line id="XMLID_18_" class="st5" x1="176" y1="48" x2="0" y2="48"/>
		<line id="XMLID_17_" class="st5" x1="176" y1="56" x2="0" y2="56"/>
		<line id="XMLID_16_" class="st5" x1="176" y1="64" x2="0" y2="64"/>
		<line id="XMLID_15_" class="st5" x1="176" y1="72" x2="0" y2="72"/>
		<line id="XMLID_14_" class="st5" x1="176" y1="80" x2="0" y2="80"/>
		<line id="XMLID_13_" class="st5" x1="176" y1="88" x2="0" y2="88"/>
		<line id="XMLID_12_" class="st5" x1="176" y1="96" x2="0" y2="96"/>
		<line id="XMLID_11_" class="st5" x1="176" y1="104" x2="0" y2="104"/>
		<line id="XMLID_10_" class="st5" x1="176" y1="112" x2="0" y2="112"/>
		<line id="XMLID_9_" class="st5" x1="176" y1="120" x2="0" y2="120"/>
		<line id="XMLID_8_" class="st5" x1="176" y1="128.001" x2="0" y2="128.001"/>
		<line id="XMLID_7_" class="st5" x1="176" y1="136.001" x2="0" y2="136.001"/>
		<line id="XMLID_6_" class="st5" x1="176" y1="144.001" x2="0" y2="144.001"/>
		<line id="XMLID_5_" class="st5" x1="176" y1="152.001" x2="0" y2="152.001"/>
		<line id="XMLID_4_" class="st5" x1="176" y1="160.001" x2="0" y2="160.001"/>
		<line id="XMLID_3_" class="st5" x1="176" y1="168.001" x2="0" y2="168.001"/>
		<rect id="XMLID_2_" y="0" class="st5" width="176" height="176.001"/>
	</g>
</g>
<g id="ICON">
	<path d="M64,152c-1.023,0-2.047-0.391-2.829-1.172c-1.562-1.562-1.562-4.095,0-5.656L118.343,88L61.171,30.828
		c-1.562-1.562-1.562-4.095,0-5.657c1.562-1.562,4.095-1.562,5.657,0l60,60c1.562,1.562,1.562,4.095,0,5.657l-60,60
		C66.047,151.61,65.024,152,64,152z"/>
</g>
</svg>
