<svg id="Layer_1" data-name="Layer 1" xmlns="http://www.w3.org/2000/svg" viewBox="0 0 143.83 143.96">
  <title>error</title>
  <g id="Symbols">
    <g id="Forms-_-Desktop-_-Alert-_-Error" data-name="Forms-/-Desktop-/-Alert-/-Error">
      <g id="Group-2">
        <g id="Icons-_-error-_-White" data-name="Icons-/-error-/-White">
          <path id="Shape" d="M71.88,88a8,8,0,0,1-8-8V31a8,8,0,1,1,16,0V80a8,8,0,0,1-8,8Z"/>
          <path id="Shape-2" data-name="Shape" d="M71.78,144a71.88,71.88,0,0,1-33.7-8.4,61.18,61.18,0,0,1-9.2-5.8,3.9,3.9,0,0,1-.7-5.6,4,4,0,0,1,5.6-.7,51.58,51.58,0,0,0,8,5.1,64.25,64.25,0,1,0-21.3-18.5,4,4,0,0,1-6.4,4.8,72.41,72.41,0,0,1-5.7-76.7,71.94,71.94,0,0,1,97.3-29.7A72,72,0,0,1,71.78,144Z"/>
          <circle id="_Path_" data-name="&lt;Path&gt;" cx="71.88" cy="106.96" r="8"/>
        </g>
      </g>
    </g>
  </g>
</svg>
