<svg id="Layer_1" data-name="Layer 1" xmlns="http://www.w3.org/2000/svg" viewBox="0 0 98.93 99.31">
  <title>info</title>
  <g id="Symbols">
    <g id="Forms-_-Desktop-_-Alert-_-Info" data-name="Forms-/-Desktop-/-Alert-/-Info">
      <g id="Group">
        <g id="Icons-_-Info-_-White" data-name="Icons-/-Info-/-White">
          <ellipse id="Oval" cx="49.46" cy="26.22" rx="4.13" ry="4.14"/>
          <path id="Shape" d="M49.38,99.31a49,49,0,0,1-23.16-5.81,41,41,0,0,1-6.3-4,2.76,2.76,0,0,1,3.35-4.38,35.07,35.07,0,0,0,5.53,3.5A44.1,44.1,0,0,0,70.12,10.71a43.92,43.92,0,0,0-59.5,18.23,44.49,44.49,0,0,0,3.48,47,2.75,2.75,0,1,1-4.42,3.28A50,50,0,0,1,5.76,26.35,49.41,49.41,0,0,1,72.7,5.85,49.66,49.66,0,0,1,49.38,99.31Z"/>
          <path id="Shape-2" data-name="Shape" d="M49.46,75.87c-1.52,0-2.75.14-2.75-1.38V44.15H44a2.76,2.76,0,0,1,0-5.52h5.5a2.75,2.75,0,0,1,2.75,2.76v33.1c0,1.52-1.23,1.38-2.75,1.38Z"/>
          <path id="Shape-3" data-name="Shape" d="M55,77.25H44a2.76,2.76,0,0,1,0-5.52H55a2.76,2.76,0,0,1,0,5.52Z"/>
        </g>
      </g>
    </g>
  </g>
</svg>
