<?xml version="1.0" encoding="utf-8"?>
<!-- Generator: Adobe Illustrator 19.1.0, SVG Export Plug-In . SVG Version: 6.00 Build 0)  -->
<svg version="1.1" id="ICON" xmlns="http://www.w3.org/2000/svg" xmlns:xlink="http://www.w3.org/1999/xlink" x="0px" y="0px"
	viewBox="0 0 176 176" style="enable-background:new 0 0 176 176;" xml:space="preserve">
	<path d="M100,160H76c-1.1,0-2.2-0.5-3-1.4c-0.8-0.9-1.1-2-1-3.1l12-96c0.2-2,1.9-3.5,4-3.5c0,0,0,0,0,0c2,0,3.7,1.5,4,3.5l9.7,76
	c0.3,2.2-1.3,4.2-3.5,4.5c-2.2,0.3-4.2-1.3-4.5-3.5L88,92l-7.5,60H100c2.2,0,4,1.8,4,4S102.2,160,100,160z"/>
	<path d="M107.8,92c-1.1,0-2.2-0.4-3-1.2c-1.6-1.6-1.6-4.3,0-5.9c4.5-4.5,7-10.4,7-16.8s-2.5-12.3-7-16.8c-1.6-1.6-1.6-4.3,0-5.9
	c1.6-1.6,4.3-1.6,5.9,0c6.1,6.1,9.4,14.1,9.4,22.7s-3.4,16.7-9.4,22.7C109.9,91.6,108.9,92,107.8,92z"/>
	<path d="M68.2,92c-1.1,0-2.1-0.4-3-1.2c-6.1-6.1-9.4-14.1-9.4-22.7s3.4-16.7,9.4-22.7c1.6-1.6,4.3-1.6,5.9,0c1.6,1.6,1.6,4.3,0,5.9
	c-4.5,4.5-7,10.4-7,16.8s2.5,12.3,7,16.8c1.6,1.6,1.6,4.3,0,5.9C70.4,91.6,69.3,92,68.2,92z"/>
	<path d="M121.9,105.9c-1,0-2-0.4-2.8-1.2c-1.6-1.6-1.6-4.1,0-5.7C127.4,90.8,132,79.7,132,68c0-11.7-4.6-22.8-12.9-31.1
	c-1.6-1.6-1.6-4.1,0-5.7c1.6-1.6,4.1-1.6,5.7,0C134.6,41.1,140,54.1,140,68c0,13.9-5.4,26.9-15.2,36.7
	C124,105.5,123,105.9,121.9,105.9z"/>
	<path d="M54.1,105.9c-1,0-2-0.4-2.8-1.2C41.4,94.9,36,81.9,36,68c0-13.9,5.4-26.9,15.2-36.7c1.6-1.6,4.1-1.6,5.7,0
	c1.6,1.6,1.6,4.1,0,5.7C48.6,45.2,44,56.3,44,68c0,11.7,4.6,22.8,12.9,31.1c1.6,1.6,1.6,4.1,0,5.7C56.1,105.5,55.1,105.9,54.1,105.9
	z"/>
	<path d="M136.1,120c-1,0-2-0.4-2.8-1.2c-1.6-1.6-1.6-4.1,0-5.7C145.3,101.1,152,85.1,152,68s-6.7-33.1-18.7-45.2
	c-1.6-1.6-1.6-4.1,0-5.7c1.6-1.6,4.1-1.6,5.7,0C152.5,30.7,160,48.8,160,68s-7.5,37.3-21.1,50.8C138.1,119.6,137.1,120,136.1,120z"
	/>
	<path d="M39.9,120c-1,0-2-0.4-2.8-1.2C23.5,105.3,16,87.2,16,68s7.5-37.3,21.1-50.8c1.6-1.6,4.1-1.6,5.7,0c1.6,1.6,1.6,4.1,0,5.7
	C30.7,34.9,24,50.9,24,68s6.7,33.1,18.7,45.2c1.6,1.6,1.6,4.1,0,5.7C42,119.6,40.9,120,39.9,120z"/>
</svg>