<?xml version="1.0" encoding="utf-8"?>
<!-- Generator: Adobe Illustrator 19.1.0, SVG Export Plug-In . SVG Version: 6.00 Build 0)  -->
<svg version="1.1" id="ICON" xmlns="http://www.w3.org/2000/svg" xmlns:xlink="http://www.w3.org/1999/xlink" x="0px" y="0px"
	 viewBox="0 0 176 176" style="enable-background:new 0 0 176 176;" xml:space="preserve">
<path d="M88.1,160h-0.2c-0.1,0-0.1,0-0.2,0c-6.6-0.2-9.6-8-10.8-13.2c-3.1,0.7-7.4,1.5-10.2,2c-3.7,0.6-6.9-0.8-8.1-3.8
	c-1.5-3.5,0.4-7.8,4.8-10.8c3.9-2.6,9.7-6.4,12.7-8.3v-29c-12.5,2.3-45.1,8.2-47.3,8.5c-7.5,1.1-11.3-2.5-12.4-5.8
	c-1.3-4.2,1.2-8.8,6-11.1c0.1,0,0.1-0.1,0.2-0.1l53.5-23V38c0-14.6,4-22,12-22s12,7.4,12,22v27.4l53.5,23c0.1,0,0.1,0.1,0.2,0.1
	c4.8,2.4,7.3,6.9,6,11.1c-1,3.4-4.9,6.9-12.4,5.8c-2.2-0.3-34.8-6.3-47.3-8.5v29c2.9,1.9,8.8,5.7,12.6,8.2c4.4,3.1,6.3,7.3,4.9,10.9
	c-1.2,3-4.4,4.5-8.1,3.8c-2.8-0.5-7.1-1.4-10.2-2c-1.3,5.2-4.3,13-10.8,13.2C88.2,160,88.2,160,88.1,160z M80,138
	c0.8,0,1.6,0.3,2.3,0.7c0.9,0.6,1.5,1.6,1.7,2.8c0.7,5.1,2.8,10.1,4,10.5c1.2-0.4,3.4-5.4,4-10.5c0.1-1.1,0.7-2.1,1.7-2.8
	c0.9-0.6,2.1-0.9,3.2-0.6c0.1,0,5.9,1.3,10.6,2.2c-5.2-3.4-13.6-8.9-13.6-8.9c-1.1-0.7-1.8-2-1.8-3.4V92c0-1.2,0.5-2.3,1.4-3.1
	c0.9-0.8,2.1-1.1,3.3-0.9c13.7,2.5,49.6,9,51.7,9.3c2.1,0.3,3.2-0.1,3.5-0.3c-0.1-0.3-0.6-0.9-1.7-1.5l-55.8-24C93,71,92,69.6,92,68
	V38c0-8.6-1.5-14-4-14s-4,5.4-4,14v30c0,1.6-1,3-2.4,3.7l-55.8,24c-1.2,0.6-1.6,1.2-1.7,1.5c0.3,0.2,1.4,0.6,3.5,0.3
	c2.1-0.3,38-6.9,51.7-9.3c1.2-0.2,2.4,0.1,3.3,0.9c0.9,0.8,1.4,1.9,1.4,3.1v36c0,1.4-0.7,2.6-1.8,3.4c-0.1,0.1-8.4,5.4-13.6,8.9
	c4.7-0.9,10.6-2.2,10.6-2.2C79.4,138,79.7,138,80,138z"/>
</svg>
