<?xml version="1.0" encoding="utf-8"?>
<!-- Generator: Adobe Illustrator 20.0.0, SVG Export Plug-In . SVG Version: 6.00 Build 0)  -->
<svg version="1.1" id="Layer_1" xmlns="http://www.w3.org/2000/svg" xmlns:xlink="http://www.w3.org/1999/xlink" x="0px" y="0px"
	 viewBox="0 0 176 176" style="enable-background:new 0 0 176 176;" xml:space="preserve">
<style type="text/css">
	.st0{display:none;}
	.st1{display:inline;fill:#F2F3F4;}
	.st2{display:inline;}
	.st3{fill:none;stroke:#CDCBCA;stroke-width:0.4;stroke-linecap:round;stroke-miterlimit:10;}
	.st4{fill:none;stroke:#CDCBCA;stroke-width:0.4;stroke-miterlimit:10;}
	.st5{fill:none;stroke:#CDCBCA;stroke-width:0.2;stroke-miterlimit:10;}
</style>
<g id="Master_vodafone_icon_grid" class="st0">
	<path id="XMLID_877_" class="st1" d="M176,176.001H0V0h176V176.001z M160,16H16v144.001h144V16z"/>
	<g id="XMLID_880_" class="st2">
		<line id="XMLID_881_" class="st3" x1="16" y1="88" x2="160" y2="88"/>
		<g id="XMLID_882_">
			<rect id="XMLID_883_" x="16" y="16" class="st4" width="144" height="144.001"/>
			<circle id="XMLID_884_" class="st3" cx="88" cy="88" r="72"/>
			<line id="XMLID_885_" class="st3" x1="88.043" y1="16" x2="88.043" y2="160.001"/>
			<g id="XMLID_886_">
				<line id="XMLID_887_" class="st3" x1="16.043" y1="16.04" x2="160" y2="160.001"/>
				<line id="XMLID_888_" class="st3" x1="16" y1="160.001" x2="160" y2="16"/>
			</g>
		</g>
	</g>
	<g id="XMLID_889_" class="st2">
		<line id="XMLID_890_" class="st5" x1="176" y1="8" x2="0" y2="8"/>
		<line id="XMLID_891_" class="st5" x1="8" y1="176.001" x2="8" y2="0"/>
		<line id="XMLID_892_" class="st5" x1="16" y1="176.001" x2="16" y2="0"/>
		<line id="XMLID_893_" class="st5" x1="24" y1="176.001" x2="24" y2="0"/>
		<line id="XMLID_894_" class="st5" x1="32" y1="176.001" x2="32" y2="0"/>
		<line id="XMLID_895_" class="st5" x1="40" y1="176.001" x2="40" y2="0"/>
		<line id="XMLID_896_" class="st5" x1="48" y1="176.001" x2="48" y2="0"/>
		<line id="XMLID_897_" class="st5" x1="56" y1="176.001" x2="56" y2="0"/>
		<line id="XMLID_898_" class="st5" x1="64" y1="176.001" x2="64" y2="0"/>
		<line id="XMLID_899_" class="st5" x1="72" y1="176.001" x2="72" y2="0"/>
		<line id="XMLID_900_" class="st5" x1="80" y1="176.001" x2="80" y2="0"/>
		<line id="XMLID_901_" class="st5" x1="88" y1="176.001" x2="88" y2="0"/>
		<line id="XMLID_902_" class="st5" x1="96" y1="176.001" x2="96" y2="0"/>
		<line id="XMLID_903_" class="st5" x1="104" y1="176.001" x2="104" y2="0"/>
		<line id="XMLID_904_" class="st5" x1="112" y1="176.001" x2="112" y2="0"/>
		<line id="XMLID_905_" class="st5" x1="120" y1="176.001" x2="120" y2="0"/>
		<line id="XMLID_906_" class="st5" x1="128" y1="176.001" x2="128" y2="0"/>
		<line id="XMLID_907_" class="st5" x1="136" y1="176.001" x2="136" y2="0"/>
		<line id="XMLID_908_" class="st5" x1="144" y1="176.001" x2="144" y2="0"/>
		<line id="XMLID_909_" class="st5" x1="152" y1="176.001" x2="152" y2="0"/>
		<line id="XMLID_910_" class="st5" x1="160" y1="176.001" x2="160" y2="0"/>
		<line id="XMLID_911_" class="st5" x1="168" y1="176.001" x2="168" y2="0"/>
		<line id="XMLID_912_" class="st5" x1="176" y1="16" x2="0" y2="16"/>
		<line id="XMLID_913_" class="st5" x1="176" y1="24" x2="0" y2="24"/>
		<line id="XMLID_914_" class="st5" x1="176" y1="32" x2="0" y2="32"/>
		<line id="XMLID_915_" class="st5" x1="176" y1="40" x2="0" y2="40"/>
		<line id="XMLID_916_" class="st5" x1="176" y1="48" x2="0" y2="48"/>
		<line id="XMLID_917_" class="st5" x1="176" y1="56" x2="0" y2="56"/>
		<line id="XMLID_918_" class="st5" x1="176" y1="64" x2="0" y2="64"/>
		<line id="XMLID_919_" class="st5" x1="176" y1="72" x2="0" y2="72"/>
		<line id="XMLID_920_" class="st5" x1="176" y1="80" x2="0" y2="80"/>
		<line id="XMLID_921_" class="st5" x1="176" y1="88" x2="0" y2="88"/>
		<line id="XMLID_922_" class="st5" x1="176" y1="96" x2="0" y2="96"/>
		<line id="XMLID_923_" class="st5" x1="176" y1="104" x2="0" y2="104"/>
		<line id="XMLID_924_" class="st5" x1="176" y1="112" x2="0" y2="112"/>
		<line id="XMLID_925_" class="st5" x1="176" y1="120" x2="0" y2="120"/>
		<line id="XMLID_926_" class="st5" x1="176" y1="128.001" x2="0" y2="128.001"/>
		<line id="XMLID_927_" class="st5" x1="176" y1="136.001" x2="0" y2="136.001"/>
		<line id="XMLID_928_" class="st5" x1="176" y1="144.001" x2="0" y2="144.001"/>
		<line id="XMLID_929_" class="st5" x1="176" y1="152.001" x2="0" y2="152.001"/>
		<line id="XMLID_930_" class="st5" x1="176" y1="160.001" x2="0" y2="160.001"/>
		<line id="XMLID_931_" class="st5" x1="176" y1="168.001" x2="0" y2="168.001"/>
		<rect id="XMLID_932_" y="0" class="st5" width="176" height="176.001"/>
	</g>
</g>
<g id="ICON">
	<path d="M144.681,160c-4.104,0-7.955-1.591-10.842-4.479l-34.472-34.594C91.049,125.564,81.653,128,72,128
		c-30.878,0-56-25.122-56-56s25.122-56,56-56c30.879,0,56,25.122,56,56c0,10.763-2.996,21.186-8.664,30.14
		c-1.183,1.866-3.651,2.421-5.52,1.24c-1.866-1.182-2.422-3.652-1.24-5.52C117.433,90.189,120,81.246,120,72
		c0-26.467-21.533-48-48-48c-26.467,0-48,21.533-48,48s21.533,48,48,48c9.222,0,18.161-2.586,25.853-7.479
		c1.586-1.008,3.655-0.777,4.98,0.552L139.5,149.87c1.372,1.371,3.214,2.13,5.181,2.13c1.968,0,3.809-0.759,5.185-2.135
		c1.377-1.376,2.135-3.218,2.135-5.185c0-1.968-0.758-3.81-2.134-5.185l-22.688-22.798c-1.559-1.565-1.553-4.098,0.014-5.656
		c1.565-1.561,4.099-1.553,5.656,0.014l22.682,22.79c2.881,2.879,4.471,6.729,4.471,10.835c0,4.104-1.59,7.955-4.478,10.842
		C152.636,158.41,148.785,160,144.681,160z"/>
</g>
</svg>
