<svg id="60d858e2-daa1-4e17-83f5-50bdbfa1aec4" data-name="Layer 1" xmlns="http://www.w3.org/2000/svg" width="128" height="128" viewBox="0 0 128 128"><title>world</title><path d="M135.9,56.3C127.6,33,110.3,15.1,85,11.7S35.9,16.9,21.9,37.4C14.4,48.5,11.1,61.8,11,75c0,5.1,8,5.2,8,0,0.2-27.1,17.1-50.2,44.4-55,14.1-2.5,29.7-.6,41.9,7.3s18.5,18.9,22.9,31.2c1.7,4.8,9.4,2.7,7.7-2.1h0Z" transform="translate(-11 -11)"/><path d="M14,93.3c8,23,24.9,41.1,49.7,44.8s50.2-4.6,64.4-25.6c7.5-11,10.8-24.3,10.9-37.6,0-5.1-8-5.2-8,0-0.2,27.4-17.4,50.5-45,55.2-14.1,2.3-29.4.3-41.5-7.5S26,103.6,21.7,91.2c-1.7-4.8-9.4-2.8-7.7,2.1h0Z" transform="translate(-11 -11)"/><path d="M111.5,75c-0.2-20.5-5-48.5-24.1-60.3C69.9,3.8,53.5,19.2,46.5,34.7,36.3,57.3,35.7,85.8,44,109.1c5.6,15.5,19.3,35.4,38.5,28.6,9.6-3.4,16.2-12.3,20.4-21.2,6.1-12.9,8.5-27.3,8.6-41.5,0-5.1-8-5.2-8,0-0.1,17.3-3.6,41.5-18.9,52.6s-26.8-5.7-31.9-18c-7.9-19.3-8.3-42.6-2.4-62.4,3.5-11.9,14-33.5,30-27.2,7.9,3.1,12.9,11.4,16.2,18.7,5,11.3,6.8,23.9,6.9,36.2C103.5,80.1,111.5,80.2,111.5,75Z" transform="translate(-11 -11)"/><path d="M26.4,38.9c14,9.1,31.3,12.4,47.7,12.6s34.3-3.1,48.6-12c4.4-2.7.4-9.6-4-6.9-13.2,8.2-29.2,11-44.6,10.9S43.2,40.3,30.4,32c-4.3-2.8-8.3,4.1-4,6.9h0Z" transform="translate(-11 -11)"/><path d="M123.6,111.1c-14-9-31.3-12.4-47.7-12.5s-34.3,3.1-48.6,12c-4.4,2.7-.4,9.6,4,6.9,13.2-8.2,29.2-11,44.6-10.9s30.8,3.1,43.6,11.5c4.3,2.8,8.3-4.1,4-6.9h0Z" transform="translate(-11 -11)"/><path d="M70.5,15V135c0,5.1,8,5.2,8,0V15c0-5.1-8-5.2-8,0h0Z" transform="translate(-11 -11)"/><path d="M135,71.5H15c-5.1,0-5.2,8,0,8H135c5.1,0,5.2-8,0-8h0Z" transform="translate(-11 -11)"/></svg>